# xmcd
#
# Track frame offsets:
#	150
#	22253
#	40583
#	58138
#	75744
#	95790
#	113815
#	130899
#	150791
#	176187
#	196482
#	211919
#	228061
#	239312
#	251357
#	264187
#	282478
#	294489
#	306409
#
# Disc length: 4340 seconds
#
# Revision: 2
# Processed by: cddbd v1.5.2PL0 Copyright (c) Steve Scherf et al.
# Submitted via: EasyCDDAExtractor 16.0.1.1
#
DISCID=0a10f213
DTITLE=Various Artist - Compact Disc Club -  Black Velvet (2005)
DYEAR=2005
DGENRE=Blues
TTITLE0=Luniz - Just Me and U
TTITLE1=Des’Ree - You Gotta Be
TTITLE2=Destiny’S Child - Emotion
TTITLE3=George Benson - Lady Love Me (One More Times)
TTITLE4=Mica Paris - One
TTITLE5=Melisa Morgan - Do Me Baby
TTITLE6=Billy Ocean - Suddenly
TTITLE7=Toni Braxton - Un Break My Heart
TTITLE8=Isley Brothers - Between The Sheets
TTITLE9=Terence Trent D’Arby - Sign Your Name
TTITLE10=Gil Scott-Heron - Did You Hear What They Said?
TTITLE11=Lou Rawls - At Last
TTITLE12=Otis Redding - These Arms Of Mine
TTITLE13=Aretha Franklin - (You Make Me Feel Like) A Natural Woman
TTITLE14=Bettye Swann - Tell It Like This
TTITLE15=Randy Crawford - Almaz
TTITLE16=Sam Cooke And Lou Rawls - Bring It On Home To Me
TTITLE17=The Drifters - Under The Boardwalk
TTITLE18=Roberta Flack - The First Time Ever I Saw Your Face
EXTD=
EXTT0=
EXTT1=
EXTT2=
EXTT3=
EXTT4=
EXTT5=
EXTT6=
EXTT7=
EXTT8=
EXTT9=
EXTT10=
EXTT11=
EXTT12=
EXTT13=
EXTT14=
EXTT15=
EXTT16=
EXTT17=
EXTT18=
PLAYORDER=
